Coordinates
version=1
nRows=6
nColumns=36
inDegrees=yes

Units are S.I. units (second, meters, Newtons, ...)
If the header above contains a line with 'inDegrees', this indicates whether rotational values are in degrees (yes) or radians (no).

endheader
time	pelvis_tilt	pelvis_list	pelvis_rotation	pelvis_tx	pelvis_ty	pelvis_tz	hip_flexion_r	hip_adduction_r	hip_rotation_r	knee_angle_r	knee_angle_r_beta	ankle_angle_r	subtalar_angle_r	mtp_angle_r	hip_flexion_l	hip_adduction_l	hip_rotation_l	knee_angle_l	knee_angle_l_beta	ankle_angle_l	subtalar_angle_l	mtp_angle_l	lumbar_extension	lumbar_bending	lumbar_rotation	arm_flex_r	arm_add_r	arm_rot_r	elbow_flex_r	pro_sup_r	arm_flex_l	arm_add_l	arm_rot_l	elbow_flex_l	pro_sup_l
     29.95000000	     -2.66356830	     -1.90994051	      0.25679688	      0.81955134	      0.95400776	      0.71589714	     32.62931184	     -3.54629077	      0.64482642	     26.12062011	      0.45589082	      4.38484529	     -8.29034606	     -7.49999987	      7.54719619	     -1.09902017	      9.61453105	     21.38551897	      0.37324772	     14.98498562	    -12.34425468	     -7.49999987	    -26.53761598	      2.21825064	      0.76016010	     11.70677001	    -12.77201064	     -2.36430385	     37.33649713	     76.79007842	      5.14070228	    -19.93971049	      8.49593816	     71.12677672	     73.72857739
     29.96666670	     -2.65264953	     -1.84711453	     -0.08294872	      0.81913973	      0.95207924	      0.71851594	     33.91884763	     -3.80060237	      0.66559228	     23.82656455	      0.41585200	      4.88983764	     -6.99322898	     -7.49999987	      7.04821955	     -1.17035492	      9.93673514	     21.94075638	      0.38293844	     15.70884132	    -12.34485482	     -7.49999987	    -27.04804601	      2.41722416	     -0.09496776	     11.96481625	    -12.60227820	     -2.93008864	     37.01701542	     76.31083156	      5.84547202	    -19.93695959	      8.70752383	     69.06001434	     73.42671519
     29.98333330	     -2.70584267	     -1.83429576	     -0.60027677	      0.81806488	      0.94713261	      0.72139815	     35.22714894	     -3.69371030	      1.02538154	     21.87330525	      0.38176119	      5.60955777	     -5.54945895	     -7.49999987	      6.52629170	     -1.46462615	      9.84386594	     22.41160106	      0.39115623	     16.20908384	    -12.14594544	     -7.49999987	    -27.25478652	      2.51493064	     -0.64506686	     12.17470559	    -12.43083374	     -3.47284278	     36.50464802	     75.76302287	      6.85653223	    -19.85020585	      9.11103283	     66.96896851	     73.08551237
     30.00000000	     -2.78332760	     -1.85053046	     -1.12554652	      0.81726862	      0.93940941	      0.72339782	     36.47411350	     -3.41729277	      1.54536893	     20.39868470	      0.35602421	      6.80177359	     -3.76188056	     -7.49999987	      5.82277217	     -1.89201707	      9.39918224	     22.84884961	      0.39878766	     16.96347833	    -11.48209610	     -7.49999987	    -26.96171792	      2.59577771	     -0.83087881	     12.25127939	    -12.44317449	     -3.86833392	     35.60344715	     75.50470815	      8.25191677	    -19.59016914	      9.88827900	     64.59324205	     72.96829702
     30.01666670	     -2.83459082	     -2.05404653	     -1.66960171	      0.81649703	      0.93434626	      0.72468005	     37.34372254	     -2.78793834	      2.45594000	     19.15013305	      0.33423287	      7.46543153	     -2.45792904	     -7.49999987	      4.71266957	     -2.59800053	      8.34319365	     23.01923749	      0.40176149	     18.37082022	    -10.00550309	     -7.49999987	    -26.41217886	      2.93343606	     -0.88239403	     12.08918589	    -12.73349297	     -3.68671951	     35.31715918	     75.95227842	      9.33881818	    -19.34015104	     10.55439873	     62.51657174	     73.25818166
     30.03333330	     -3.04066374	     -2.10414977	     -1.76792225	      0.81445801	      0.93146147	      0.72544629	     38.14483698	     -2.47418275	      3.45008779	     18.41028063	      0.32132001	      7.47196494	     -1.79025797	     -7.49999987	      3.56839141	     -2.87456478	      8.27508435	     22.87117343	      0.39917728	     19.31565888	    -10.14477617	     -7.49999987	    -25.85922140	      3.34028172	     -1.45303752	     11.98140720	    -12.99633762	     -3.73339723	     35.36224752	     75.94603516	      9.76107176	    -19.34527234	     10.64304089	     62.23875441	     73.25974938
